PathFileType	4	(X/Y/Z)	D:\telocate\uwb01-Unnamed.trc
DataRate	CameraRate	NumFrames	NumMarkers	Units	OrigDataRate	OrigDataStartFrame	OrigNumFrames
100.00	100.00	      108	0	mm	100.00	2826	      7534
Frame#	Time	
		

2826	28.250	-113.71968	1781.92175	1183.15967	
2827	28.260	-118.80349	1781.22852	1181.54321	
2828	28.270	-122.29833	1781.45801	1181.17017	
2829	28.280	-126.36262	1780.64526	1181.68091	
2830	28.290	-126.88412	1779.49146	1183.38928	
2831	28.300	-130.68303	1779.60522	1183.36230	
2832	28.310	-133.55518	1779.18469	1182.93445	
2833	28.320	-136.59621	1778.80505	1183.30566	
2834	28.330	-143.79390	1778.73206	1181.80212	
2835	28.340	-148.15218	1777.55908	1181.22864	
2836	28.350	-150.91101	1777.22876	1180.65576	
2837	28.360	-153.58179	1776.73645	1181.23047	
2838	28.370	-155.42084	1776.56262	1181.37549	
2839	28.380	-157.48979	1776.01270	1180.75305	
2840	28.390	-160.76709	1775.35315	1180.98291	
2841	28.400	-163.43623	1775.99841	1180.06714	
2842	28.410	-166.64059	1774.95935	1180.36755	
2843	28.420	-166.59811	1774.67041	1181.63379	
2844	28.430	-168.25887	1774.26489	1181.83142	
2845	28.440	-173.00275	1771.91199	1180.69397	
2846	28.450	-173.73381	1771.90247	1181.89697	
2847	28.460	-176.25229	1770.58972	1181.94946	
2848	28.470	-178.12352	1771.71814	1181.95166	
2849	28.480	-184.25757	1770.70190	1180.47473	
2850	28.490	-188.54430	1770.42896	1180.31140	
2851	28.500	-189.95045	1769.83679	1179.85876	
2852	28.510	-193.03886	1768.76880	1180.09155	
2853	28.520	-194.55795	1766.74182	1180.74902	
2854	28.530	-196.30859	1767.71802	1180.64417	
2855	28.540	-199.12334	1765.74951	1180.10693	
2856	28.550	-201.87552	1766.76001	1180.05444	
2857	28.560	-204.47531	1765.75635	1180.12744	
2858	28.570	-206.79646	1765.22119	1180.33801	
2859	28.580	-209.29506	1764.97742	1180.65857	
2860	28.590	-209.87239	1764.98413	1181.83337	
2861	28.600	-213.79193	1763.66833	1180.22461	
2862	28.610	-215.83955	1763.75781	1181.80920	
2863	28.620	-218.79211	1762.83240	1181.94287	
2864	28.630	-222.55153	1761.73804	1181.25610	
2865	28.640	-223.85823	1761.65674	1180.92896	
2866	28.650	-227.78636	1761.06921	1181.34583	
2867	28.660	-230.95015	1759.92664	1180.91467	
2868	28.670	-235.93539	1758.84998	1181.04480	
2869	28.680	-240.09433	1758.65930	1180.62305	
2870	28.690	-244.09276	1757.88940	1180.92383	
2871	28.700	-247.32364	1756.65845	1180.92908	
2872	28.710	-250.89789	1756.18579	1180.79517	
2873	28.720	-254.35353	1755.65369	1180.33313	
2874	28.730	-258.40897	1754.76453	1180.82092	
2875	28.740	-265.23279	1753.63904	1179.03906	
2876	28.750	-270.46408	1750.29504	1178.43127	
2877	28.760	-274.08118	1751.95947	1179.19348	
2878	28.770	-276.75259	1751.66626	1178.73242	
2879	28.780	-277.86716	1751.24023	1179.87415	
2880	28.790	-284.74084	1749.91541	1178.22620	
2881	28.800	-286.73526	1749.49976	1179.75464	
2882	28.810	-290.18393	1748.73291	1179.50610	
2883	28.820	-293.85175	1748.09790	1179.73901	
2884	28.830	-298.12817	1747.03589	1179.49487	
2885	28.840	-305.07397	1745.74304	1178.18176	
2886	28.850	-311.23322	1745.03870	1177.88196	
2887	28.860	-315.16965	1744.03613	1178.07251	
2888	28.870	-317.02371	1744.07654	1179.35571	
2889	28.880	-321.23129	1743.28088	1179.42688	
2890	28.890	-326.63312	1742.56409	1179.53394	
2891	28.900	-330.71515	1741.86133	1179.48608	
2892	28.910	-335.74405	1740.87561	1179.74207	
2893	28.920	-340.85312	1740.00940	1179.52576	
2894	28.930	-348.93884	1739.09363	1177.63208	
2895	28.940	-354.92825	1737.61658	1177.47449	
2896	28.950	-357.61606	1737.78833	1179.32825	
2897	28.960	-362.10229	1736.97595	1178.90527	
2898	28.970	-367.33994	1736.41760	1179.11938	
2899	28.980	-371.92783	1735.42871	1178.79712	
2900	28.990	-377.87387	1735.20032	1179.04114	
2901	29.000	-382.59479	1734.74878	1179.12292	
2902	29.010	-392.89499	1731.62451	1177.12720	
2903	29.020	-398.38284	1733.32300	1177.63000	
2904	29.030	-400.46594	1733.86523	1178.89844	
2905	29.040	-407.40097	1733.48682	1179.29614	
2906	29.050	-412.72763	1731.52905	1178.45276	
2907	29.060	-418.46201	1730.80176	1178.49976	
2908	29.070	-424.50314	1730.74097	1178.31445	
2909	29.080	-434.19373	1729.43616	1176.75586	
2910	29.090	-440.00714	1728.91113	1177.13049	
2911	29.100	-441.69531	1729.53784	1178.17773	
2912	29.110	-447.02988	1729.31396	1178.17493	
2913	29.120	-452.91068	1728.99524	1178.22913	
2914	29.130	-457.22598	1728.35999	1178.18469	
2915	29.140	-462.51291	1727.57056	1178.38904	
2916	29.150	-467.73642	1727.95959	1177.44788	
2917	29.160	-476.39026	1727.44507	1176.04761	
2918	29.170	-478.68320	1727.54956	1177.75000	
2919	29.180	-483.58661	1726.75562	1177.27551	
2920	29.190	-488.63062	1726.42310	1177.22095	
2921	29.200	-493.80963	1726.34912	1177.60938	
2922	29.210	-498.43423	1724.44678	1177.71509	
2923	29.220	-503.81378	1724.57129	1177.84265	
2924	29.230	-509.62021	1725.24170	1177.01025	
2925	29.240	-518.11975	1723.54858	1176.06726	
2926	29.250	-522.74725	1725.37561	1176.37244	
2927	29.260	-524.42810	1726.29407	1177.41016	
2928	29.270	-529.81537	1725.53625	1177.57202	
2929	29.280	-534.06665	1726.99817	1177.72156	
2930	29.290	-538.96674	1725.76697	1178.09460	
2931	29.300	-542.98096	1727.76233	1177.67969	
2932	29.310	-549.73022	1725.98669	1177.97754	
2933	29.320	-557.24310	1726.27539	1176.90442	
